<svg xmlns="http://www.w3.org/2000/svg" version="1.1" xmlns:xlink="http://www.w3.org/1999/xlink" xmlns:svgjs="http://svgjs.dev/svgjs" width="1440" height="560" preserveAspectRatio="none" viewBox="0 0 1440 560"><g mask="url(&quot;#SvgjsMask1004&quot;)" fill="none"><rect width="1440" height="560" x="0" y="0" fill="rgba(68, 173, 139, 1)"></rect><path d="M343.64 0C382.35 5.28 383.45 19.09 420 19.09C436.11 19.09 432.3 2.27 448.97 0C502.3 -7.27 504.49 0 560 0C630 0 630 0 700 0C770 0 770 0 840 0C910 0 910 0 980 0C1015.68 0 1019.08 -10.91 1051.37 0C1089.08 12.74 1081.2 41.17 1120 47.3C1185.51 57.64 1190.01 40.2 1260 32.94C1330.01 25.68 1333.98 32.46 1400 18.26C1410.55 15.99 1402.59 1.37 1413.13 0C1472.59 -7.76 1509.84 -33.28 1540 0C1573.28 36.72 1540 70 1540 140C1540 210 1540 210 1540 280C1540 350 1540 350 1540 420C1540 490 1567.77 517.77 1540 560C1521.74 587.77 1481.2 581.31 1447.95 560C1411.2 536.44 1429.79 470.26 1400 470.26C1364.15 470.26 1364.52 529.32 1316.67 560C1294.52 574.19 1288.34 560 1260 560C1190 560 1190 560 1120 560C1050 560 1050 560 980 560C910 560 910 560 840 560C770 560 770 560 700 560C630 560 630 560 560 560C504.49 560 502.17 567.51 448.97 560C432.17 557.63 432.64 552.32 420 540.24C359.42 482.32 361.02 480.35 302.53 420C291.02 408.13 293.54 395.8 280 395.8C257.15 395.8 250.92 402.41 229.74 420C180.92 460.56 182.54 464.11 140 512.11C120.5 534.11 130.72 551.43 105.66 560C60.72 575.37 22.72 590.11 0 560C-30.11 520.11 0 490 0 420C0 371.1 -14.03 364.93 0 322.19C8.95 294.93 45.97 306.93 45.97 280C45.97 218.88 22.04 213.2 0 146.09C-0.95 143.2 0 143.05 0 140C0 70 -35 35 0 0C35 -35 70 0 140 0C210 0 210 0 280 0C311.82 0 312.35 -4.27 343.64 0" stroke="rgba(77, 145, 123, 1)" stroke-width="2"></path><path d="M700 104.58C657.39 104.58 622.22 105.79 613.53 140C599.94 193.5 622.6 222.16 655.45 280C665.84 298.29 677.93 292.25 700 292.25C717.71 292.25 727.69 295.53 735 280C763.54 219.4 782.98 196.49 771.71 140C765.48 108.78 736.48 104.58 700 104.58" stroke="rgba(77, 145, 123, 1)" stroke-width="2"></path><path d="M1120 236.62C1097.95 236.62 1080.57 251.02 1071.88 280C1053.07 342.71 1050.45 355.51 1065 420C1074.51 462.17 1089.44 493.33 1120 493.33C1155.44 493.33 1190.04 464.82 1197 420C1206.6 358.16 1181.18 346.83 1153.12 280C1142.68 255.14 1138.57 236.62 1120 236.62" stroke="rgba(77, 145, 123, 1)" stroke-width="2"></path><path d="M165 140C216.81 86.62 216.26 52.76 280 42.42C343.76 32.08 351.57 67.26 420 98.64C457.97 116.05 472.52 106.82 492.8 140C527.94 197.5 504.31 214.7 530.83 280C537.91 297.42 542.01 299.49 560 305.45C626.59 327.49 634.85 308.8 700 336C772.05 366.08 834.4 372.56 834.4 420C834.4 473.51 769.7 482.58 700 537.89C681.5 552.58 680.84 556.39 658 560C610.84 567.45 609 560 560 560C534.65 560 531.65 569.73 509.31 560C461.65 539.26 461.18 533.67 420 499.06C377.9 463.67 380.94 459.95 342.76 420C310.94 386.71 317.73 352.59 280 352.59C216.35 352.59 186.85 438.71 140 420C95.95 402.41 98.21 348.63 98.21 280C98.21 231.97 118 232.79 140 186.67C151.39 162.79 146.81 158.74 165 140" stroke="rgba(77, 145, 123, 1)" stroke-width="2"></path><path d="M700 62.41C635.2 62.41 567.18 16.38 567.18 0C567.18 -14.82 633.59 0 700 0C751.8 0 803.6 -14.4 803.6 0C803.6 16.81 753.41 62.41 700 62.41" stroke="rgba(77, 145, 123, 1)" stroke-width="2"></path><path d="M876.84 140C905 63.69 921.32 66.07 970 0C972.9 -3.93 975 0 980 0C981.38 0 981.61 -0.77 982.75 0C1051.61 46.53 1048.95 51.45 1120 94.59C1164.24 121.45 1167.56 115.68 1213.33 140C1237.56 152.87 1235.8 168.97 1260 168.97C1290.24 168.97 1291.97 156.12 1322.22 140C1361.97 118.81 1368.19 124.94 1400 94.35C1440.98 54.94 1424.64 29.1 1467.81 0C1494.64 -18.08 1524.53 -20.63 1540 0C1560.63 27.5 1558.84 58.57 1540 96.25C1523.84 128.57 1470 111.4 1470 140C1470 181 1514.57 184.59 1540 235.45C1549.57 254.59 1540 257.73 1540 280C1540 350 1540 350 1540 420C1540 490 1556.77 506.77 1540 560C1534.72 576.77 1498.45 576.61 1495.89 560C1487.68 506.61 1542.48 474.35 1518.46 420C1494.53 365.85 1463.59 351.89 1400 343C1334.36 333.82 1316.37 400.84 1260 383.87C1211.75 369.34 1226.94 330.81 1190.75 280C1156.94 232.54 1159.68 187.32 1120 187.32C1072.9 187.32 1057.46 225.96 1017.19 280C987.46 319.9 1010.74 375.2 980 375.2C935.48 375.2 893.14 340.36 866.67 280C841.56 222.76 853.33 203.69 876.84 140" stroke="rgba(77, 145, 123, 1)" stroke-width="2"></path><path d="M0 370.14C52.41 370.14 130.83 376.03 140 420C150.64 470.96 96.53 503.09 39.62 560C26.53 573.09 4.37 575.44 0 560C-15.44 505.44 0 490 0 420C0 395.07 -17.59 370.14 0 370.14" stroke="rgba(77, 145, 123, 1)" stroke-width="2"></path><path d="M875 560C875 550.16 934.18 521.82 980 521.82C998.35 521.82 1003.33 547.45 1003.33 560C1003.33 566.54 991.66 560 980 560C927.5 560 875 569.25 875 560" stroke="rgba(77, 145, 123, 1)" stroke-width="2"></path><path d="M227.5 140C244.47 111.06 251.06 95.45 280 95.45C321.86 95.45 331.18 109.74 369.09 140C401.18 165.61 397.5 171.73 420 207.2C441.91 241.73 431.51 249.46 457.92 280C501.51 330.41 500.56 344.6 560 369.09C621.6 394.47 633.67 363.23 700 379.75C735.87 388.69 764.4 397.27 764.4 420C764.4 445.64 736.78 455.5 700 476.49C634.58 513.83 628.15 541.2 560 536.67C488.15 531.89 486.56 501.75 420 457.88C398.06 443.42 401.15 439.27 382.99 420C331.15 365.02 340.62 349.57 280 309.38C235.04 279.57 183.02 316.13 171.82 280C156.77 231.44 190.38 203.33 227.5 140" stroke="rgba(77, 145, 123, 1)" stroke-width="2"></path><path d="M700 20.24C678.98 20.24 656.92 5.31 656.92 0C656.92 -4.81 678.46 0 700 0C716.8 0 733.6 -4.67 733.6 0C733.6 5.45 717.32 20.24 700 20.24" stroke="rgba(77, 145, 123, 1)" stroke-width="2"></path><path d="M1540 23.33C1535.14 23.33 1522.5 7.29 1522.5 0C1522.5 -4.37 1536.25 -5 1540 0C1545 6.67 1543.89 23.33 1540 23.33" stroke="rgba(77, 145, 123, 1)" stroke-width="2"></path><path d="M1228.39 280C1228.39 254.89 1238.46 229.31 1260 229.31C1293.99 229.31 1339.46 255.25 1339.46 280C1339.46 304.3 1294.37 327.42 1260 327.42C1238.83 327.42 1228.39 303.95 1228.39 280" stroke="rgba(77, 145, 123, 1)" stroke-width="2"></path><path d="M0 418.08C2.01 418.08 5.38 417.86 5.38 420C5.38 425.18 1.4 432.73 0 432.73C-1.29 432.73 0 426.37 0 420C0 419.04 -0.68 418.08 0 418.08" stroke="rgba(77, 145, 123, 1)" stroke-width="2"></path></g><defs><mask id="SvgjsMask1004"><rect width="1440" height="560" fill="#ffffff"></rect></mask></defs></svg>