<svg id="visual" viewBox="0 0 960 540" width="960" height="540" xmlns="http://www.w3.org/2000/svg" xmlns:xlink="http://www.w3.org/1999/xlink" version="1.1"><rect x="0" y="0" width="960" height="540" fill="#F1E3D3"></rect><path d="M0 335L137 332L274 314L411 371L549 330L686 381L823 376L960 381L960 541L823 541L686 541L549 541L411 541L274 541L137 541L0 541Z" fill="#f2d0a9"></path><path d="M0 404L137 403L274 341L411 387L549 351L686 392L823 358L960 401L960 541L823 541L686 541L549 541L411 541L274 541L137 541L0 541Z" fill="#ebbb94"></path><path d="M0 387L137 371L274 393L411 386L549 413L686 418L823 393L960 389L960 541L823 541L686 541L549 541L411 541L274 541L137 541L0 541Z" fill="#e4a681"></path><path d="M0 431L137 440L274 384L411 395L549 387L686 434L823 420L960 404L960 541L823 541L686 541L549 541L411 541L274 541L137 541L0 541Z" fill="#de9172"></path><path d="M0 428L137 457L274 455L411 416L549 456L686 410L823 432L960 427L960 541L823 541L686 541L549 541L411 541L274 541L137 541L0 541Z" fill="#d67b66"></path><path d="M0 466L137 472L274 441L411 446L549 459L686 445L823 441L960 473L960 541L823 541L686 541L549 541L411 541L274 541L137 541L0 541Z" fill="#cd655e"></path><path d="M0 489L137 463L274 487L411 492L549 480L686 459L823 486L960 474L960 541L823 541L686 541L549 541L411 541L274 541L137 541L0 541Z" fill="#c34d58"></path><path d="M0 494L137 477L274 480L411 484L549 500L686 495L823 496L960 477L960 541L823 541L686 541L549 541L411 541L274 541L137 541L0 541Z" fill="#b83456"></path><path d="M0 505L137 508L274 509L411 518L549 506L686 506L823 524L960 502L960 541L823 541L686 541L549 541L411 541L274 541L137 541L0 541Z" fill="#aa1155"></path></svg>